<?xml version="1.0" encoding="UTF-8"?>
<svg version="1.1" xmlns="http://www.w3.org/2000/svg" width="300" height="424">
<path d="M0 0 C99 0 198 0 300 0 C300 139.92 300 279.84 300 424 C201 424 102 424 0 424 C0 284.08 0 144.16 0 0 Z " fill="#F9FAF4" transform="translate(0,0)"/>
<path d="M0 0 C3.28198266 1.4364888 5.45082228 3.20342016 7.97369385 5.73318481 C9.14309509 6.89846207 9.14309509 6.89846207 10.33612061 8.08728027 C11.18200745 8.94035767 12.02789429 9.79343506 12.89941406 10.67236328 C14.24628296 12.0187941 14.24628296 12.0187941 15.62036133 13.39242554 C18.07908978 15.85058047 20.53160549 18.31485045 22.98305225 20.78026438 C25.54727454 23.35699408 28.11716645 25.92805644 30.6864624 28.49972534 C35.54941983 33.3688975 40.40725677 38.24314518 45.26327491 43.11923683 C50.79256418 48.67088529 56.32753748 54.21685188 61.86299562 59.76234841 C73.24833386 71.16858848 84.62651247 82.58194296 96 94 C90.72428092 100.39360752 84.92620924 106.22224354 79.06933594 112.07592773 C77.96806345 113.18019679 76.86699477 114.28466914 75.76611328 115.389328 C72.79364449 118.37058207 69.8179854 121.34863145 66.84144115 124.32581592 C64.98180975 126.18615998 63.12289294 128.04721502 61.26422882 129.90852547 C54.78056267 136.40142099 48.29434085 142.89175061 41.80566406 149.37963867 C35.75365301 155.43104688 29.70726469 161.48803356 23.66343474 167.54761165 C18.47112782 172.75296637 13.27500114 177.95448678 8.07584596 183.15300137 C4.97156926 186.25702262 1.86887893 189.36259071 -1.2299881 192.47201347 C-4.13779461 195.38945657 -7.05030335 198.30211966 -9.96658325 201.211092 C-11.03823903 202.28169696 -12.10817326 203.35402822 -13.17629242 204.42816162 C-14.62894801 205.88846905 -16.08755826 207.34254849 -17.5479126 208.79515076 C-18.36420261 209.61198554 -19.18049263 210.42882032 -20.02151871 211.27040768 C-22 213 -22 213 -24 213 C-24 213.99 -24 214.98 -24 216 C-23.13036621 216.38067627 -23.13036621 216.38067627 -22.24316406 216.76904297 C-19.74927777 218.13758615 -18.10256164 219.66997769 -16.109375 221.6953125 C-15.04589844 222.76845703 -15.04589844 222.76845703 -13.9609375 223.86328125 C-13.23132813 224.60964844 -12.50171875 225.35601562 -11.75 226.125 C-11.00492187 226.87910156 -10.25984375 227.63320313 -9.4921875 228.41015625 C-7.6568658 230.26900772 -5.8263809 232.13237005 -4 234 C0.89192005 229.89995293 5.48448713 225.64050072 9.96484375 221.09765625 C10.60184708 220.4568663 11.2388504 219.81607635 11.89515686 219.15586853 C14.58850745 216.4463554 17.27581685 213.73088051 19.96362305 211.01586914 C21.94107086 209.02017609 23.92163972 207.02761678 25.90234375 205.03515625 C26.49530746 204.4338942 27.08827118 203.83263214 27.69920349 203.21315002 C30.6195359 200.27611152 33.58837379 197.45856712 36.73487854 194.76412964 C40.92683163 191.11228429 44.87348892 187.2609892 48.79296875 183.32055664 C49.52565475 182.58801666 50.25834076 181.85547668 51.01322937 181.10073853 C53.40703418 178.70624337 55.79728869 176.30823802 58.1875 173.91015625 C59.85736549 172.23842345 61.52745357 170.56691295 63.19775391 168.89561462 C67.57287932 164.51668864 71.94499207 160.13476684 76.31646729 155.75219727 C80.7859724 151.27242491 85.25834363 146.79551593 89.73046875 142.31835938 C98.48977393 133.54836032 107.24589653 124.77519113 116 116 C120.20119584 118.03441228 123.01334593 120.61106821 126.3125 123.875 C126.87517578 124.40480469 127.43785156 124.93460937 128.01757812 125.48046875 C129.61328125 127.0546875 129.61328125 127.0546875 132 130 C131.9179554 134.19597671 128.77477057 136.63211918 125.96463013 139.3894043 C125.43503059 139.92086154 124.90543106 140.45231878 124.35978305 140.99988079 C122.58039776 142.78186924 120.79049891 144.55290847 119.00048828 146.32421875 C117.72378547 147.59843867 116.44774953 148.87332705 115.17233276 150.14883423 C112.42276247 152.89569677 109.66849318 155.63772822 106.91049576 158.37612915 C102.55040561 162.70524022 98.20067409 167.04465915 93.8522644 171.38549805 C86.97323935 178.25002434 80.0870306 185.10729402 73.19786918 191.96164608 C60.86155124 204.23609102 48.53733364 216.52267974 36.21587932 228.81204319 C31.8902339 233.12584998 27.56143148 237.43645694 23.22997689 241.74443054 C20.53625196 244.42432948 17.844513 247.10621687 15.15321732 249.78855515 C13.90402895 251.03267374 12.65396354 252.27591244 11.40296173 253.51820755 C9.69611064 255.21336957 7.99236958 256.9115986 6.28933716 258.6105957 C5.79293452 259.10203914 5.29653189 259.59348257 4.78508675 260.09981823 C2.29052101 262.59515136 0.03060262 265.11204538 -2 268 C-5.09179136 266.6238464 -7.19638753 265.04841555 -9.57519531 262.65185547 C-10.59580048 261.63102371 -10.59580048 261.63102371 -11.63702393 260.58956909 C-12.72161896 259.4894902 -12.72161896 259.4894902 -13.828125 258.3671875 C-14.95163361 257.23943405 -14.95163361 257.23943405 -16.09783936 256.08889771 C-18.4866302 253.68892099 -20.86836897 251.28207991 -23.25 248.875 C-24.86933169 247.24563648 -26.48911802 245.61672466 -28.109375 243.98828125 C-32.07820505 239.99741194 -36.04126899 236.00088585 -40 232 C-40.48124832 232.41273163 -40.96249664 232.82546326 -41.45832825 233.2507019 C-42.08929916 233.79171539 -42.72027008 234.33272888 -43.37036133 234.89013672 C-43.99598465 235.42661835 -44.62160797 235.96309998 -45.26618958 236.51583862 C-47.06815267 238.05833946 -48.87791622 239.59145443 -50.6875 241.125 C-51.79227206 242.08263537 -52.89649527 243.04090453 -54 244 C-54.825 244.70125 -55.65 245.4025 -56.5 246.125 C-58.19886474 247.82896326 -58.19886474 247.82896326 -57.93063354 249.7570343 C-56.55260719 253.07828342 -54.12953035 255.27884858 -51.60986328 257.76245117 C-51.04882904 258.32713608 -50.4877948 258.89182098 -49.90975952 259.47361755 C-48.0539349 261.33754594 -46.18747297 263.19040122 -44.3203125 265.04296875 C-43.02804322 266.33471944 -41.73629186 267.62698846 -40.44503784 268.91975403 C-37.73774612 271.62695604 -35.02535938 274.32891412 -32.30908203 277.02709961 C-28.82454247 280.48894091 -25.35119535 283.96175724 -21.88136482 287.43833447 C-19.21550729 290.10753039 -16.54469247 292.77171929 -13.8722496 295.43432045 C-12.58947274 296.71324367 -11.30804699 297.99352353 -10.02798843 299.27516747 C-8.2398484 301.06367759 -6.44536163 302.84556022 -4.64892578 304.62573242 C-4.11893982 305.1581958 -3.58895386 305.69065918 -3.04290771 306.23925781 C-0.69802036 308.55028928 0.82963003 309.94321001 4 311 C4.25722839 310.41778183 4.51445679 309.83556366 4.77947998 309.23570251 C6.10915151 306.80006038 7.56619346 305.18648171 9.52832031 303.22875977 C10.24957092 302.50443253 10.97082153 301.78010529 11.71392822 301.03382874 C12.88420563 299.87432961 12.88420563 299.87432961 14.078125 298.69140625 C14.88231873 297.88767075 15.68651245 297.08393524 16.51507568 296.25584412 C18.21748421 294.5564558 19.92232163 292.85949772 21.62939453 291.16479492 C24.23132387 288.58104564 26.82523842 285.98946112 29.41796875 283.39648438 C31.07505119 281.74432049 32.73258864 280.09261282 34.390625 278.44140625 C35.16271301 277.67043106 35.93480103 276.89945587 36.73028564 276.1051178 C40.67992169 272.18981817 44.68042465 268.50152264 49 265 C51.47720235 262.64075967 53.73701792 260.34459721 55.8125 257.625 C57.67102011 255.39477587 59.4246959 253.7094629 61.62109375 251.84375 C66.01939772 248.03338004 70.14821576 244.00017845 74.25 239.875 C74.94351563 239.18535156 75.63703125 238.49570312 76.3515625 237.78515625 C79.79295987 234.33716616 83.05837457 230.89689554 86 227 C91.56427915 227.24101397 94.21853469 230.76018887 97.8125 234.5625 C98.40998047 235.17802734 99.00746094 235.79355469 99.62304688 236.42773438 C101.0912621 237.94293249 102.54689553 239.47030438 104 241 C102.52630723 244.40890785 100.62192589 246.62521822 98.00106812 249.23944092 C96.74744225 250.49719078 96.74744225 250.49719078 95.4684906 251.78034973 C94.54995804 252.69169174 93.63142548 253.60303375 92.68505859 254.54199219 C91.70897691 255.51750956 90.73333574 256.49346788 89.75810242 257.46983337 C87.1119385 260.11657103 84.45965413 262.75709755 81.80623198 265.3965559 C79.03331342 268.15697073 76.26605875 270.92305155 73.49819946 273.6885376 C68.25715988 278.92336137 63.01104297 284.15306606 57.76308501 289.38095307 C51.7882296 295.33345265 45.81905321 301.29163323 39.85034823 307.25029898 C27.57320914 319.50653378 15.28895352 331.75561142 3 344 C-0.25167426 342.57084207 -2.42864728 340.82802435 -4.94245911 338.33169556 C-5.71509094 337.56903885 -6.48772278 336.80638214 -7.2837677 336.02061462 C-8.12187485 335.18317215 -8.95998199 334.34572968 -9.82348633 333.48291016 C-10.71325165 332.60146835 -11.60301697 331.72002655 -12.51974487 330.81187439 C-14.95521546 328.3963655 -17.38600796 325.97635008 -19.81405473 323.55339098 C-21.33069918 322.04039137 -22.8486332 320.52869783 -24.36701012 319.01743698 C-29.66209474 313.74682832 -34.95145091 308.47054024 -40.23608398 303.18945312 C-45.16629627 298.26288286 -50.10950634 293.34962047 -55.0587576 288.44218409 C-59.30627893 284.22929944 -63.54418329 280.00690104 -67.77477092 275.77701223 C-70.30236393 273.25021377 -72.83381243 270.72758734 -75.37516212 268.21461868 C-78.20518725 265.41549864 -81.01515804 262.59677519 -83.82348633 259.77587891 C-84.67171463 258.94248489 -85.51994293 258.10909088 -86.39387512 257.2504425 C-87.53167419 256.09799797 -87.53167419 256.09799797 -88.69245911 254.92227173 C-89.35925092 254.25749125 -90.02604273 253.59271076 -90.71304035 252.90778542 C-92 251 -92 251 -91.99184799 249.06253242 C-90.60435285 246.17725792 -88.70626365 244.33822216 -86.43797302 242.07720947 C-85.95934297 241.59601615 -85.48071292 241.11482282 -84.98757893 240.61904788 C-83.38084531 239.00737015 -81.76361891 237.40665357 -80.14624023 235.80566406 C-78.99275377 234.65302373 -77.83992733 233.49972256 -76.68771362 232.34580994 C-73.5561258 229.21336021 -70.41536416 226.0902561 -67.27290225 222.96872044 C-63.99104307 219.70559543 -60.71765884 216.4339917 -57.44337463 213.16326904 C-51.24097957 206.97020402 -45.03097573 200.784827 -38.81821734 194.60216022 C-31.74591937 187.56337637 -24.68212239 180.51608778 -17.61903465 173.46806383 C-3.08881074 158.96921067 11.45208171 144.4810974 26 130 C25.04125489 128.87439187 24.08150833 127.74963668 23.12133789 126.62524414 C22.31981041 125.68558556 22.31981041 125.68558556 21.50209045 124.72694397 C19.89081692 122.8744729 18.20712894 121.13890228 16.4375 119.4375 C14.19472287 117.24918324 12.1792942 115.0306061 10.25 112.5625 C9.5075 111.716875 8.765 110.87125 8 110 C4.9821806 109.65080559 4.9821806 109.65080559 3.38671875 111.57421875 C2.82597656 112.27160156 2.26523438 112.96898437 1.6875 113.6875 C-1.27624966 117.23652795 -4.43735106 120.04375939 -8 123 C-8.97866115 124.10736179 -9.93614385 125.23369509 -10.875 126.375 C-12.97084659 128.90973792 -15.1447253 131.07348527 -17.65583801 133.19517517 C-22.18106114 137.10630785 -26.40933182 141.26866469 -30.6315918 145.50219727 C-31.45378204 146.32263519 -32.27597229 147.14307312 -33.12307739 147.9883728 C-35.81763116 150.67855498 -38.50854551 153.37234326 -41.19921875 156.06640625 C-43.08138185 157.94789509 -44.96369218 159.82923572 -46.84614563 161.71043396 C-50.78082029 165.64329629 -54.71339754 169.57824659 -58.64477539 173.5144043 C-63.1781634 178.0532407 -67.71515258 182.58845348 -72.25401372 187.12181622 C-76.16689731 191.03015099 -80.07781535 194.9404446 -83.98711902 198.85236019 C-86.3151222 201.18191544 -88.643977 203.5106063 -90.97421837 205.83792305 C-93.57077317 208.43193284 -96.16409155 211.02913611 -98.7565918 213.62719727 C-99.90299385 214.77056297 -99.90299385 214.77056297 -101.07255554 215.93702698 C-104.93206951 219.81185822 -108.57933192 223.73154797 -112 228 C-116.93495672 227.10694393 -119.38097864 224.13398983 -122.8125 220.6875 C-123.42287109 220.10548828 -124.03324219 219.52347656 -124.66210938 218.92382812 C-125.23380859 218.35470703 -125.80550781 217.78558594 -126.39453125 217.19921875 C-126.91893799 216.68190186 -127.44334473 216.16458496 -127.98364258 215.6315918 C-129 214 -129 214 -128.88381958 212.24044991 C-127.60621384 209.00176666 -125.3159593 206.91684125 -122.87524414 204.52120972 C-122.06647748 203.7096565 -122.06647748 203.7096565 -121.24137211 202.88170826 C-119.42968137 201.06741414 -117.6074726 199.26406584 -115.78515625 197.46044922 C-114.48550426 196.16328003 -113.18651905 194.86544248 -111.88815308 193.56698608 C-108.35764516 190.03989381 -104.81803596 186.52206186 -101.27689743 183.00564718 C-97.57748004 179.32867916 -93.88692339 175.64284118 -90.19555664 171.95779419 C-83.20081894 164.97755372 -76.1988952 158.00457102 -69.19402027 151.03450501 C-56.64226499 138.54465554 -44.10266546 126.04260722 -31.56576824 113.53784573 C-27.16261797 109.14655486 -22.75631261 104.75846081 -18.34738159 100.37297416 C-15.6100676 97.64945272 -12.87471371 94.92396877 -10.13980484 92.19803238 C-8.86719342 90.93050518 -7.59370678 89.66385603 -6.31930161 88.39813232 C-4.58550877 86.67596472 -2.85476911 84.9507861 -1.12475586 83.224823 C-0.61474565 82.71977198 -0.10473543 82.21472097 0.42072964 81.69436538 C3.04146251 79.09729178 3.04146251 79.09729178 5 76 C8.09179136 77.3761536 10.19638753 78.95158445 12.57519531 81.34814453 C13.25559875 82.02869904 13.9360022 82.70925354 14.63702393 83.41043091 C15.36008728 84.14381683 16.08315063 84.87720276 16.828125 85.6328125 C17.57713074 86.38464813 18.32613647 87.13648376 19.09783936 87.91110229 C21.4866302 90.31107901 23.86836897 92.71792009 26.25 95.125 C27.86933169 96.75436352 29.48911802 98.38327534 31.109375 100.01171875 C35.07820505 104.00258806 39.04126899 107.99911415 43 112 C45.83071302 110.63990623 47.81009399 109.41722201 49.9453125 107.1015625 C50.46480469 106.53953125 50.98429688 105.9775 51.51953125 105.3984375 C52.04933594 104.81320313 52.57914063 104.22796875 53.125 103.625 C53.93130859 102.75875 53.93130859 102.75875 54.75390625 101.875 C57.46244465 98.91654659 59.16312883 96.67374235 61 93 C41.53 73.53 22.06 54.06 2 34 C-1.40983238 35.70491619 -3.01544527 36.76702639 -5.59405518 39.35354614 C-6.63724411 40.39261108 -6.63724411 40.39261108 -7.70150757 41.45266724 C-8.45388702 42.21223724 -9.20626648 42.97180725 -9.98144531 43.75439453 C-10.7818222 44.55447937 -11.5821991 45.35456421 -12.40682983 46.17889404 C-15.05202947 48.82548737 -17.69007385 51.47909528 -20.328125 54.1328125 C-22.16043219 55.96884966 -23.99318134 57.80444586 -25.82635498 59.63961792 C-30.15775434 63.97787419 -34.48467104 68.32055504 -38.80944896 72.66541088 C-43.73415149 77.61247844 -48.6645433 82.55385917 -53.59541941 87.4947722 C-63.7366189 97.65686928 -73.87065984 107.82608245 -84 118 C-85.32 117.34 -86.64 116.68 -88 116 C-88 115.34 -88 114.68 -88 114 C-88.56203125 113.76539063 -89.1240625 113.53078125 -89.703125 113.2890625 C-92.54635891 111.69337 -94.48098127 109.71075457 -96.75 107.375 C-97.54921875 106.55773437 -98.3484375 105.74046875 -99.171875 104.8984375 C-99.77515625 104.27195312 -100.3784375 103.64546875 -101 103 C-99.52630723 99.59109215 -97.62192589 97.37478178 -95.00106812 94.76055908 C-94.16531754 93.92205917 -93.32956696 93.08355927 -92.4684906 92.21965027 C-91.54995804 91.30830826 -90.63142548 90.39696625 -89.68505859 89.45800781 C-88.70897691 88.48249044 -87.73333574 87.50653212 -86.75810242 86.53016663 C-84.1119385 83.88342897 -81.45965413 81.24290245 -78.80623198 78.6034441 C-76.03331342 75.84302927 -73.26605875 73.07694845 -70.49819946 70.3114624 C-65.25715988 65.07663863 -60.01104297 59.84693394 -54.76308501 54.61904693 C-48.7882296 48.66654735 -42.81905321 42.70836677 -36.85034823 36.74970102 C-24.57320914 24.49346622 -12.28895352 12.24438858 0 0 Z " fill="#040404" transform="translate(155,47)"/>
</svg>
