<?xml version="1.0" encoding="UTF-8"?>
<svg version="1.1" xmlns="http://www.w3.org/2000/svg" width="500" height="500">
<path d="M0 0 C165 0 330 0 500 0 C500 165 500 330 500 500 C335 500 170 500 0 500 C0 335 0 170 0 0 Z " fill="#F3F4EE" transform="translate(0,0)"/>
<path d="M0 0 C5.8797505 4.87724437 11.26880817 10.13886878 16.65234375 15.5546875 C17.55247696 16.45623566 18.45261017 17.35778381 19.38002014 18.28665161 C21.75072823 20.66198217 24.11924515 23.03945405 26.48669434 25.41802979 C28.91180728 27.85344717 31.33982085 30.28596912 33.76757812 32.71875 C38.51437128 37.47652769 43.25829281 42.2371538 48 47 C42.38062338 53.85907115 36.09685489 60.03009491 29.8203125 66.27734375 C28.64039553 67.45539258 27.46070142 68.63366466 26.28121948 69.81214905 C23.19610309 72.89347142 20.10799411 75.97177716 17.01922607 79.04943848 C13.85994267 82.19844034 10.70353484 85.35032171 7.546875 88.50195312 C1.36737473 94.6707711 -4.8152939 100.83640129 -11 107 C-10.0919838 108.13199353 -9.17316174 109.25532363 -8.25 110.375 C-7.73953125 111.00148438 -7.2290625 111.62796875 -6.703125 112.2734375 C-4.91800519 114.08312318 -3.32050356 115.00117455 -1 116 C-0.55720703 115.55197021 -0.11441406 115.10394043 0.34179688 114.64233398 C2.39176683 112.57129904 4.44585433 110.50439303 6.5 108.4375 C7.19609375 107.73302734 7.8921875 107.02855469 8.609375 106.30273438 C9.30546875 105.60341797 10.0015625 104.90410156 10.71875 104.18359375 C11.34716797 103.54993896 11.97558594 102.91628418 12.62304688 102.26342773 C14.61966382 100.36217099 16.6531204 98.55902667 18.74023438 96.75976562 C23.16492435 92.91105088 27.30694306 88.82014743 31.4375 84.66015625 C32.20304199 83.89319931 32.96858398 83.12624237 33.75732422 82.33604431 C36.17393197 79.91389119 38.58701726 77.48826388 41 75.0625 C42.64950686 73.40797107 44.29924429 71.75367198 45.94921875 70.09960938 C49.96881371 66.06905798 53.98553169 62.03565728 58 58 C59.17825358 58.90172468 60.34231577 59.82201502 61.5 60.75 C62.47453125 61.51570313 62.47453125 61.51570313 63.46875 62.296875 C65 64 65 64 65 68 C63.04841999 70.32623659 61.10530066 72.39922503 58.94140625 74.51269531 C58.29767059 75.15701508 57.65393494 75.80133484 56.99069214 76.46517944 C54.85730447 78.59577701 52.71009092 80.71185256 50.5625 82.828125 C49.08189458 84.30127139 47.60216894 85.7753025 46.12329102 87.25018311 C42.22592176 91.13226972 38.3166902 95.00219596 34.40490723 98.86975098 C30.41638103 102.81738167 26.43913483 106.77634046 22.4609375 110.734375 C14.65165287 118.50074226 6.82979572 126.25431565 -1 134 C-2.10338218 133.0636169 -3.20541029 132.12563812 -4.30688477 131.18701172 C-4.92072525 130.66485077 -5.53456573 130.14268982 -6.16700745 129.60470581 C-8.87952853 127.23001076 -11.41223193 124.69567399 -13.9375 122.125 C-14.43056641 121.62742187 -14.92363281 121.12984375 -15.43164062 120.6171875 C-16.62345992 119.41379715 -17.81208678 118.20724635 -19 117 C-22.40212299 118.61382757 -25.10324519 120.58603766 -28 123 C-27.13266401 127.6618673 -24.2867307 130.09327098 -20.99609375 133.296875 C-20.39821548 133.89050842 -19.80033722 134.48414185 -19.18434143 135.09576416 C-17.27565898 136.98767195 -15.3568046 138.86887499 -13.4375 140.75 C-12.14059164 142.03186002 -10.84435922 143.3144043 -9.54882812 144.59765625 C-6.37367043 147.73976072 -3.18935054 150.87230539 0 154 C3.13879381 152.6124182 5.22254795 151.00476592 7.609375 148.55078125 C8.28226562 147.86693359 8.95515625 147.18308594 9.6484375 146.47851562 C10.68871094 145.40633789 10.68871094 145.40633789 11.75 144.3125 C16.36409108 139.57998643 21.02917467 135.03682316 26.04052734 130.72583008 C29.30747843 127.848422 32.37018872 124.77470735 35.4375 121.6875 C36.06076172 121.06810547 36.68402344 120.44871094 37.32617188 119.81054688 C37.91849609 119.21693359 38.51082031 118.62332031 39.12109375 118.01171875 C39.91664673 117.21447388 39.91664673 117.21447388 40.72827148 116.40112305 C42.10943585 115.00611595 42.10943585 115.00611595 43 113 C46.81684226 114.55500981 49.19195732 117.03595495 52 120 C50.450168 123.70044944 48.19605329 126.04581087 45.36669922 128.86035156 C44.89823578 129.32910706 44.42977234 129.79786255 43.94711304 130.28082275 C42.40433305 131.82221432 40.85460036 133.35640873 39.3046875 134.890625 C38.23093808 135.96064255 37.15763067 137.03110381 36.08474731 138.10198975 C33.26479548 140.91431879 30.43888846 143.72058889 27.61169434 146.52563477 C24.7257863 149.39105523 21.84555743 152.26217168 18.96484375 155.1328125 C13.31543511 160.76079512 7.65972175 166.38238884 2 172 C-3.8797505 167.12275563 -9.26880817 161.86113122 -14.65234375 156.4453125 C-15.55247696 155.54376434 -16.45261017 154.64221619 -17.38002014 153.71334839 C-19.75072823 151.33801783 -22.11924515 148.96054595 -24.48669434 146.58197021 C-26.91180728 144.14655283 -29.33982085 141.71403088 -31.76757812 139.28125 C-36.51437128 134.52347231 -41.25829281 129.7628462 -46 125 C-40.96868701 118.83982129 -35.3752429 113.31264137 -29.70486641 107.75196266 C-27.378296 105.46783333 -25.0613503 103.17404126 -22.74372005 100.88084698 C-18.44103625 96.62376649 -14.13441518 92.37084978 -9.81176758 88.1340332 C-6.79207442 85.17356997 -3.7845992 82.20117487 -0.78495598 79.22040367 C0.35848117 78.08872812 1.50644505 76.96160768 2.65893364 75.83915138 C4.26269444 74.2761972 5.85043508 72.69853103 7.43530273 71.11645508 C8.79714943 69.77578728 8.79714943 69.77578728 10.18650818 68.40803528 C12.2528119 66.20655217 12.2528119 66.20655217 11.86463928 63.78886414 C10.87096044 61.73302828 9.78621013 60.31858907 8.1875 58.6875 C7.68605469 58.15511719 7.18460937 57.62273437 6.66796875 57.07421875 C5.0846921 55.8232899 5.0846921 55.8232899 3.25115967 56.09873962 C-0.06973928 57.42827421 -2.22648583 59.83474695 -4.68652344 62.34594727 C-5.24306107 62.90204681 -5.79959869 63.45814636 -6.3730011 64.03109741 C-8.20899358 65.86917828 -10.03413439 67.71765332 -11.859375 69.56640625 C-13.13095686 70.84358386 -14.40320311 72.12010031 -15.67608643 73.39598083 C-19.02329412 76.75463882 -22.36139483 80.12220864 -25.69769287 83.49169922 C-29.10421627 86.92891931 -32.51925585 90.35765477 -35.93359375 93.78710938 C-42.63076904 100.51645209 -49.31835621 107.25523812 -56 114 C-59.32072528 112.42003387 -61.68029835 110.92110579 -64 108 C-63.43966246 103.26722386 -60.07044079 100.67286275 -56.82788086 97.48730469 C-56.18399918 96.84298492 -55.54011749 96.19866516 -54.87672424 95.53482056 C-52.74646442 93.40665093 -50.60577495 91.2893045 -48.46484375 89.171875 C-46.98588406 87.69851042 -45.50758529 86.22448214 -44.02992249 84.74981689 C-40.13861441 80.86996421 -36.23838132 76.99920469 -32.33624268 73.13024902 C-28.35611852 69.18081054 -24.38447135 65.22286791 -20.41210938 61.265625 C-12.61636182 53.50205388 -4.81116235 45.74805948 3 38 C4.10338218 38.9363831 5.20541029 39.87436188 6.30688477 40.81298828 C6.92072525 41.33514923 7.53456573 41.85731018 8.16700745 42.39529419 C10.87952853 44.76998924 13.41223193 47.30432601 15.9375 49.875 C16.43056641 50.37257812 16.92363281 50.87015625 17.43164062 51.3828125 C18.62345992 52.58620285 19.81208678 53.79275365 21 55 C24.76488042 53.27845212 27.15063897 51.00765886 30 48 C28.35503261 43.84874375 25.34271245 41.00192643 22.2578125 37.88671875 C21.69303192 37.3129097 21.12825134 36.73910065 20.5463562 36.14790344 C19.35378977 34.94086377 18.15842146 33.73658677 16.96044922 32.53491211 C15.12604751 30.68855434 13.3111236 28.8243635 11.49609375 26.95898438 C10.33448555 25.78791846 9.17176243 24.61795719 8.0078125 23.44921875 C7.19511398 22.60722176 7.19511398 22.60722176 6.36599731 21.74821472 C4.67210266 20.01657208 4.67210266 20.01657208 2 18 C-1.7442063 18.24465238 -3.5660384 20.20115902 -6.12597656 22.78540039 C-6.92650452 23.58615494 -7.72703247 24.38690948 -8.55181885 25.21192932 C-9.40612488 26.08171921 -10.26043091 26.95150909 -11.140625 27.84765625 C-12.02280701 28.7340831 -12.90498901 29.62050995 -13.81390381 30.53379822 C-16.15378577 32.88763056 -18.48695398 35.24773754 -20.81713867 37.61114502 C-23.19814663 40.02288417 -25.58770853 42.42611479 -27.9765625 44.83007812 C-32.6589678 49.54558059 -37.33270728 54.26954156 -42 59 C-43.17825358 58.09827532 -44.34231577 57.17798498 -45.5 56.25 C-46.1496875 55.73953125 -46.799375 55.2290625 -47.46875 54.703125 C-49 53 -49 53 -49 49 C-47.13977051 46.65875244 -47.13977051 46.65875244 -44.50195312 44.04785156 C-44.02402817 43.5693425 -43.54610321 43.09083344 -43.05369568 42.5978241 C-41.47217709 41.01909146 -39.87696511 39.45499627 -38.28125 37.890625 C-37.1817887 36.79862426 -36.08320744 35.7057368 -34.98547363 34.61199951 C-32.09420975 31.73600645 -29.19113546 28.87222689 -26.28546143 26.01080322 C-23.32242195 23.08868495 -20.37067691 20.1552071 -17.41796875 17.22265625 C-11.62299054 11.4705745 -5.81548981 5.73134285 0 0 Z " fill="#040404" transform="translate(144,164)"/>
<path d="M0 0 C2.43119623 1.87015094 3.64069173 3.28138345 5 6 C5.26855112 9.76500537 5.23160387 13.53899445 5.25 17.3125 C5.270625 18.35857422 5.29125 19.40464844 5.3125 20.48242188 C5.31765625 21.49498047 5.3228125 22.50753906 5.328125 23.55078125 C5.34214355 24.93777222 5.34214355 24.93777222 5.35644531 26.3527832 C4.92452118 29.56055948 3.93472847 31.42121209 2 34 C-1.59264452 35.19754817 -4.22717474 35.33094958 -8 35 C-10.36497439 33.13291495 -11.66030715 31.67938569 -13 29 C-13.32248898 25.06930842 -13.32442843 21.12978381 -13.375 17.1875 C-13.43107422 15.5468457 -13.43107422 15.5468457 -13.48828125 13.87304688 C-13.57661702 5.81976878 -13.57661702 5.81976878 -10.73046875 1.7734375 C-6.59124256 -0.91498695 -4.86200742 -0.69457249 0 0 Z " fill="#0A0A0A" transform="translate(403,245)"/>
<path d="M0 0 C0.639375 -0.02449219 1.27875 -0.04898437 1.9375 -0.07421875 C5.43974931 1.2192256 7.38213855 3.43499755 9 6.6875 C9.69590717 10.56064682 9.6538905 14.32514869 9.5625 18.25 C9.57345703 19.27802734 9.58441406 20.30605469 9.59570312 21.36523438 C9.55107459 25.95602329 9.50291653 28.85753345 7.08984375 32.83984375 C3.74234148 35.79941118 1.37673177 35.96684714 -3.09375 35.91015625 C-5 35.6875 -5 35.6875 -6.9375 34.375 C-10.05360677 29.42588925 -9.30218511 23.44572488 -9.375 17.8125 C-9.43107422 16.17861328 -9.43107422 16.17861328 -9.48828125 14.51171875 C-9.57650753 6.50273316 -9.57650753 6.50273316 -6.7265625 2.47265625 C-2.92294309 -0.01767909 -2.92294309 -0.01767909 0 0 Z " fill="#0F0F0F" transform="translate(258,296.3125)"/>
<path d="M0 0 C0.639375 -0.02449219 1.27875 -0.04898438 1.9375 -0.07421875 C5.43974931 1.2192256 7.38213855 3.43499755 9 6.6875 C9.69590717 10.56064682 9.6538905 14.32514869 9.5625 18.25 C9.57345703 19.27802734 9.58441406 20.30605469 9.59570312 21.36523438 C9.55107459 25.95602329 9.50291653 28.85753345 7.08984375 32.83984375 C3.74234148 35.79941118 1.37673177 35.96684714 -3.09375 35.91015625 C-5 35.6875 -5 35.6875 -6.9375 34.375 C-10.05360677 29.42588925 -9.30218511 23.44572488 -9.375 17.8125 C-9.43107422 16.17861328 -9.43107422 16.17861328 -9.48828125 14.51171875 C-9.57650753 6.50273316 -9.57650753 6.50273316 -6.7265625 2.47265625 C-2.92294309 -0.01767909 -2.92294309 -0.01767909 0 0 Z " fill="#0F0F0F" transform="translate(342,192.3125)"/>
<path d="M0 0 C12 0 12 0 15.25 2.0625 C17.43736375 5.73414629 17.61233721 7.7901817 17 12 C15.5 14.4375 15.5 14.4375 14 16 C14.66 16.66 15.32 17.32 16 18 C18.73397322 22.10095984 18.46413301 24.1266034 18 29 C16.82986774 32.4203866 16.12689277 32.91540482 13 35 C8.71 35 4.42 35 0 35 C0 23.45 0 11.9 0 0 Z " fill="#151514" transform="translate(320,245)"/>
<path d="M0 0 C3.96 0 7.92 0 12 0 C16.71146314 4.71146314 17.09840045 5.60402197 17.23046875 12.02734375 C17 14 17 14 15 17 C14.34 17 13.68 17 13 17 C13.28875 17.96421875 13.5775 18.9284375 13.875 19.921875 C14.24625 21.18515625 14.6175 22.4484375 15 23.75 C15.556875 25.62945312 15.556875 25.62945312 16.125 27.546875 C17 31 17 31 17 35 C15.35 34.67 13.7 34.34 12 34 C11.49363393 32.25183142 10.99515381 30.50137737 10.5 28.75 C10.2215625 27.77546875 9.943125 26.8009375 9.65625 25.796875 C9 23 9 23 9 19 C7.68 19 6.36 19 5 19 C5 24.28 5 29.56 5 35 C3.35 35 1.7 35 0 35 C0 23.45 0 11.9 0 0 Z " fill="#161616" transform="translate(359,245)"/>
<path d="M0 0 C12 0 12 0 15.25 1.9375 C17.56206867 5.98362017 17.81310033 9.42952028 17 14 C16.01 15.485 16.01 15.485 15 17 C14.34 17 13.68 17 13 17 C13.28875 18.04800781 13.5775 19.09601563 13.875 20.17578125 C14.25019793 21.55463366 14.62518705 22.93354289 15 24.3125 C15.19078125 25.00279297 15.3815625 25.69308594 15.578125 26.40429688 C16.37716184 29.35787949 17 31.92559219 17 35 C15.68 35 14.36 35 13 35 C11.68 29.72 10.36 24.44 9 19 C7.68 19 6.36 19 5 19 C5 24.28 5 29.56 5 35 C3.35 35 1.7 35 0 35 C0 23.45 0 11.9 0 0 Z " fill="#131313" transform="translate(343,297)"/>
<path d="M0 0 C1.65 0 3.3 0 5 0 C5.84228458 3.56044445 6.67223903 7.12365344 7.5 10.6875 C7.73847656 11.69490234 7.97695313 12.70230469 8.22265625 13.74023438 C8.44824219 14.71669922 8.67382812 15.69316406 8.90625 16.69921875 C9.11572266 17.59471436 9.32519531 18.49020996 9.54101562 19.4128418 C9.99994512 21.99969065 10.08261971 24.37888974 10 27 C10.66 27 11.32 27 12 27 C12.0825 25.700625 12.165 24.40125 12.25 23.0625 C13.00798034 15.22249435 15.09817614 7.62498681 17 0 C18.65 0 20.3 0 22 0 C22 11.55 22 23.1 22 35 C20.68 35 19.36 35 18 35 C17.505 25.1 17.505 25.1 17 15 C15.72571094 20.8331036 15.72571094 20.8331036 14.45727539 26.66748047 C14.29735107 27.39338379 14.13742676 28.11928711 13.97265625 28.8671875 C13.81031494 29.61081543 13.64797363 30.35444336 13.48071289 31.12060547 C13 33 13 33 12 35 C11.34 35 10.68 35 10 35 C8.33333333 28.33333333 6.66666667 21.66666667 5 15 C4.67 21.6 4.34 28.2 4 35 C2.68 35 1.36 35 0 35 C0 23.45 0 11.9 0 0 Z " fill="#181817" transform="translate(293,245)"/>
<path d="M0 0 C1.32 0 2.64 0 4 0 C4.99 6.93 5.98 13.86 7 21 C8.27442372 14.83778852 8.27442372 14.83778852 9.54272461 8.67431641 C9.70264893 7.90780762 9.86257324 7.14129883 10.02734375 6.3515625 C10.18968506 5.56604004 10.35202637 4.78051758 10.51928711 3.97119141 C11 2 11 2 12 0 C12.99 0 13.98 0 15 0 C16.32 6.6 17.64 13.2 19 20 C19.33 20 19.66 20 20 20 C20.13277344 18.80761719 20.26554687 17.61523438 20.40234375 16.38671875 C20.58055983 14.82029322 20.75895456 13.25388802 20.9375 11.6875 C21.02451172 10.90181641 21.11152344 10.11613281 21.20117188 9.30664062 C21.28818359 8.54931641 21.37519531 7.79199219 21.46484375 7.01171875 C21.58267212 5.96697388 21.58267212 5.96697388 21.70288086 4.90112305 C22 3 22 3 23 0 C23.99 0 24.98 0 26 0 C26.44956448 6.92662307 25.50182293 13.38013414 24.14404297 20.1484375 C23.15110336 25.10011724 22.4488582 29.97278817 22 35 C20.68 35 19.36 35 18 35 C17.88406494 34.40461426 17.76812988 33.80922852 17.64868164 33.19580078 C17.12296202 30.50493604 16.59278705 27.8149682 16.0625 25.125 C15.88009766 24.18785156 15.69769531 23.25070313 15.50976562 22.28515625 C15.33251953 21.38925781 15.15527344 20.49335938 14.97265625 19.5703125 C14.81031494 18.74289551 14.64797363 17.91547852 14.48071289 17.06298828 C14.07331058 14.95281634 14.07331058 14.95281634 13 13 C11.68 20.26 10.36 27.52 9 35 C7.68 35 6.36 35 5 35 C2.59809872 23.33934514 0.40096168 11.92860987 0 0 Z " fill="#101010" transform="translate(355,193)"/>
<path d="M0 0 C1.65 0 3.3 0 5 0 C5.62811425 2.45757324 6.2525237 4.91599787 6.875 7.375 C7.04902344 8.05433594 7.22304688 8.73367188 7.40234375 9.43359375 C8.79202796 14.94086081 9.88212265 20.41061324 11 26 C12.98 17.42 14.96 8.84 17 0 C18.65 0 20.3 0 22 0 C22 11.55 22 23.1 22 35 C21.01 35 20.02 35 19 35 C18.505 23.12 18.505 23.12 18 11 C16.35 18.92 14.7 26.84 13 35 C12.01 35 11.02 35 10 35 C8.35 28.07 6.7 21.14 5 14 C4.67 20.93 4.34 27.86 4 35 C2.68 35 1.36 35 0 35 C0 23.45 0 11.9 0 0 Z " fill="#1A1A19" transform="translate(299,297)"/>
<path d="M0 0 C1.65 0 3.3 0 5 0 C6.98 8.58 8.96 17.16 11 26 C12.60353878 18.19227966 12.60353878 18.19227966 14.20092773 10.38330078 C14.40145752 9.41376465 14.6019873 8.44422852 14.80859375 7.4453125 C15.01282959 6.45031738 15.21706543 5.45532227 15.42749023 4.43017578 C16 2 16 2 17 0 C18.65 0 20.3 0 22 0 C22 11.55 22 23.1 22 35 C20.68 35 19.36 35 18 35 C17.67 28.07 17.34 21.14 17 14 C15.35 20.93 13.7 27.86 12 35 C11.01 35 10.02 35 9 35 C7.35 27.08 5.7 19.16 4 11 C3.67 18.92 3.34 26.84 3 35 C2.01 35 1.02 35 0 35 C0 23.45 0 11.9 0 0 Z " fill="#040404" transform="translate(272,297)"/>
<path d="M0 0 C4 1 4 1 5.18847656 2.85766602 C5.50268555 3.64842529 5.81689453 4.43918457 6.140625 5.25390625 C6.48867188 6.10791016 6.83671875 6.96191406 7.1953125 7.84179688 C7.54335938 8.73962891 7.89140625 9.63746094 8.25 10.5625 C8.79527344 11.91504883 8.79527344 11.91504883 9.3515625 13.29492188 C10.24810303 15.52447663 11.12584655 17.76157308 12 20 C12.33 13.4 12.66 6.8 13 0 C14.32 0 15.64 0 17 0 C17 11.55 17 23.1 17 35 C13 34 13 34 11.81152344 32.05053711 C11.49731445 31.2178833 11.18310547 30.38522949 10.859375 29.52734375 C10.33730469 28.17866211 10.33730469 28.17866211 9.8046875 26.80273438 C9.45664062 25.85720703 9.10859375 24.91167969 8.75 23.9375 C8.20472656 22.5134082 8.20472656 22.5134082 7.6484375 21.06054688 C6.75163039 18.71232825 5.87399098 16.35680578 5 14 C4.67 20.93 4.34 27.86 4 35 C2.68 35 1.36 35 0 35 C0 23.45 0 11.9 0 0 Z " fill="#0F0F0F" transform="translate(386,193)"/>
<path d="M0 0 C1.65 0 3.3 0 5 0 C5 5.28 5 10.56 5 16 C7.97 16 10.94 16 14 16 C14 10.72 14 5.44 14 0 C15.32 0 16.64 0 18 0 C18 11.55 18 23.1 18 35 C16.68 35 15.36 35 14 35 C14 29.72 14 24.44 14 19 C11.03 19 8.06 19 5 19 C5 24.28 5 29.56 5 35 C3.35 35 1.7 35 0 35 C0 23.45 0 11.9 0 0 Z " fill="#0B0B0B" transform="translate(249,245)"/>
<path d="M0 0 C10.52631579 0 10.52631579 0 14 2 C16.70401639 6.05602459 16.51574282 9.24657037 16 14 C15.0625 16.5 15.0625 16.5 13 18 C9.96474192 18.62427294 7.11244783 18.81956824 4 19 C4 24.28 4 29.56 4 35 C2.68 35 1.36 35 0 35 C0 23.45 0 11.9 0 0 Z " fill="#030303" transform="translate(270,193)"/>
<path d="M0 0 C1.65 0 3.3 0 5 0 C6.00092056 4.50148051 6.99772395 9.00384542 7.99072266 13.50708008 C8.32910969 15.03890592 8.66862051 16.57048397 9.00927734 18.10180664 C9.49872759 20.30290577 9.98412973 22.50486435 10.46875 24.70703125 C10.62186646 25.39150833 10.77498291 26.07598541 10.93273926 26.78120422 C11.54776011 29.59173374 12 32.1121443 12 35 C10.68 35 9.36 35 8 35 C7.34 32.36 6.68 29.72 6 27 C3.69 26.67 1.38 26.34 -1 26 C-1.33 28.97 -1.66 31.94 -2 35 C-3.32 35 -4.64 35 -6 35 C-5.41510891 27.15335863 -4.03520694 19.57263566 -2.4375 11.875 C-2.08655273 10.15410156 -2.08655273 10.15410156 -1.72851562 8.3984375 C-1.15676376 5.5980202 -0.5805121 2.79861203 0 0 Z " fill="#090908" transform="translate(254,193)"/>
<path d="M0 0 C1.32 0 2.64 0 4 0 C5.92171476 7.29378102 7.61223956 14.62459682 9.1875 22 C9.36635742 22.8247583 9.54521484 23.6495166 9.72949219 24.49926758 C9.89481445 25.28325928 10.06013672 26.06725098 10.23046875 26.875 C10.37895264 27.57367188 10.52743652 28.27234375 10.68041992 28.9921875 C11 31 11 31 11 35 C9.68 35 8.36 35 7 35 C6.67 32.03 6.34 29.06 6 26 C3.36 26 0.72 26 -2 26 C-2.33 28.97 -2.66 31.94 -3 35 C-4.32 35 -5.64 35 -7 35 C-6.24200166 27.9540609 -4.90308137 21.0682484 -3.5 14.125 C-3.27441406 12.98546875 -3.04882812 11.8459375 -2.81640625 10.671875 C-2.59855469 9.58648437 -2.38070313 8.50109375 -2.15625 7.3828125 C-1.95837891 6.39684082 -1.76050781 5.41086914 -1.55664062 4.39501953 C-1 2 -1 2 0 0 Z " fill="#070707" transform="translate(278,245)"/>
<path d="M0 0 C4.43024874 0.87022743 5.91370196 2.00398461 8.5 5.6875 C8.8125 9.5 8.8125 9.5 8.5 12.6875 C7.18 12.6875 5.86 12.6875 4.5 12.6875 C4.17 10.3775 3.84 8.0675 3.5 5.6875 C1.52 5.6875 -0.46 5.6875 -2.5 5.6875 C-2.5 13.9375 -2.5 22.1875 -2.5 30.6875 C-0.52 30.6875 1.46 30.6875 3.5 30.6875 C3.83 28.0475 4.16 25.4075 4.5 22.6875 C5.82 22.6875 7.14 22.6875 8.5 22.6875 C8.97761194 29.73227612 8.97761194 29.73227612 7 33.6875 C3.96652651 36.11427879 2.21081538 36.41444803 -1.59765625 36.1875 C-4.74235131 35.36096824 -5.89591382 33.38236477 -7.5 30.6875 C-9.42392191 26.83965617 -8.81529995 22.17077647 -8.875 17.9375 C-8.91238281 16.9475 -8.94976562 15.9575 -8.98828125 14.9375 C-9.08719414 6.71674013 -9.08719414 6.71674013 -6.1953125 3.02734375 C-3.5 0.6875 -3.5 0.6875 0 0 Z " fill="#111111" transform="translate(235.5,296.3125)"/>
<path d="M0 0 C4.43024874 0.87022743 5.91370196 2.00398461 8.5 5.6875 C8.8125 9.5 8.8125 9.5 8.5 12.6875 C7.18 12.6875 5.86 12.6875 4.5 12.6875 C4.17 10.3775 3.84 8.0675 3.5 5.6875 C1.52 5.6875 -0.46 5.6875 -2.5 5.6875 C-2.5 13.9375 -2.5 22.1875 -2.5 30.6875 C-0.52 30.6875 1.46 30.6875 3.5 30.6875 C3.83 28.0475 4.16 25.4075 4.5 22.6875 C5.82 22.6875 7.14 22.6875 8.5 22.6875 C8.97761194 29.73227612 8.97761194 29.73227612 7 33.6875 C3.96652651 36.11427879 2.21081538 36.41444803 -1.59765625 36.1875 C-4.74235131 35.36096824 -5.89591382 33.38236477 -7.5 30.6875 C-9.42392191 26.83965617 -8.81529995 22.17077647 -8.875 17.9375 C-8.91238281 16.9475 -8.94976562 15.9575 -8.98828125 14.9375 C-9.08719414 6.71674013 -9.08719414 6.71674013 -6.1953125 3.02734375 C-3.5 0.6875 -3.5 0.6875 0 0 Z " fill="#111111" transform="translate(235.5,244.3125)"/>
<path d="M0 0 C4.43024874 0.87022743 5.91370196 2.00398461 8.5 5.6875 C8.8125 9.5 8.8125 9.5 8.5 12.6875 C7.18 12.6875 5.86 12.6875 4.5 12.6875 C4.17 10.3775 3.84 8.0675 3.5 5.6875 C1.52 5.6875 -0.46 5.6875 -2.5 5.6875 C-2.5 13.9375 -2.5 22.1875 -2.5 30.6875 C-0.52 30.6875 1.46 30.6875 3.5 30.6875 C3.83 28.0475 4.16 25.4075 4.5 22.6875 C5.82 22.6875 7.14 22.6875 8.5 22.6875 C8.97761194 29.73227612 8.97761194 29.73227612 7 33.6875 C3.96652651 36.11427879 2.21081538 36.41444803 -1.59765625 36.1875 C-4.74235131 35.36096824 -5.89591382 33.38236477 -7.5 30.6875 C-9.42392191 26.83965617 -8.81529995 22.17077647 -8.875 17.9375 C-8.91238281 16.9475 -8.94976562 15.9575 -8.98828125 14.9375 C-9.08719414 6.71674013 -9.08719414 6.71674013 -6.1953125 3.02734375 C-3.5 0.6875 -3.5 0.6875 0 0 Z " fill="#111111" transform="translate(235.5,192.3125)"/>
<path d="M0 0 C2.0625 1.625 2.0625 1.625 3 4 C3.1875 7.75 3.1875 7.75 3 11 C1.68 11 0.36 11 -1 11 C-1.66 8.69 -2.32 6.38 -3 4 C-4.66611905 3.957279 -6.33382885 3.95936168 -8 4 C-9.68516954 5.68516954 -9.13008019 7.78767788 -9.1328125 10.09375 C-9.13410156 11.12371094 -9.13539063 12.15367187 -9.13671875 13.21484375 C-9.13285156 14.29894531 -9.12898438 15.38304687 -9.125 16.5 C-9.12886719 17.58410156 -9.13273437 18.66820312 -9.13671875 19.78515625 C-9.13542969 20.81511719 -9.13414062 21.84507812 -9.1328125 22.90625 C-9.13168457 23.85822266 -9.13055664 24.81019531 -9.12939453 25.79101562 C-9.24699456 27.97452138 -9.24699456 27.97452138 -8 29 C-5.5 29.16666667 -5.5 29.16666667 -3 29 C-1.03177114 27.03177114 -1.33751619 23.65191291 -1 21 C0.32 21 1.64 21 3 21 C3.21053652 24.5791209 3.17894979 27.45122063 2.0625 30.875 C-0.71732316 33.73906023 -2.93915608 33.91229206 -6.83984375 34.140625 C-9 34 -9 34 -11.5 32.75 C-15.27737583 28.34306153 -14.22313346 22.09234102 -14.25 16.625 C-14.270625 15.5834375 -14.29125 14.541875 -14.3125 13.46875 C-14.3617773 3.83503721 -14.3617773 3.83503721 -11 0 C-7.5091862 -1.7454069 -3.70927465 -0.86278 0 0 Z " fill="#0B0B0B" transform="translate(379,298)"/>
<path d="M0 0 C4.29 0 8.58 0 13 0 C13 1.32 13 2.64 13 4 C10.36 4 7.72 4 5 4 C5 7.63 5 11.26 5 15 C7.31 15 9.62 15 12 15 C12 16.32 12 17.64 12 19 C9.69 19 7.38 19 5 19 C5 22.96 5 26.92 5 31 C7.64 31 10.28 31 13 31 C13 32.32 13 33.64 13 35 C8.71 35 4.42 35 0 35 C0 23.45 0 11.9 0 0 Z " fill="#1B1B1A" transform="translate(342,245)"/>
<path d="M0 0 C3 -0.375 3 -0.375 6 0 C8.13876592 3.20814888 8.25576428 4.0877073 8.265625 7.78125 C8.26820313 8.70550781 8.27078125 9.62976563 8.2734375 10.58203125 C8.26570313 11.54496094 8.25796875 12.50789063 8.25 13.5 C8.25773437 14.46292969 8.26546875 15.42585938 8.2734375 16.41796875 C8.27085937 17.34222656 8.26828125 18.26648438 8.265625 19.21875 C8.26336914 20.06373047 8.26111328 20.90871094 8.25878906 21.77929688 C8 24 8 24 6 27 C3 27.375 3 27.375 0 27 C-2.13876592 23.79185112 -2.25576428 22.9122927 -2.265625 19.21875 C-2.26820313 18.29449219 -2.27078125 17.37023437 -2.2734375 16.41796875 C-2.26570313 15.45503906 -2.25796875 14.49210937 -2.25 13.5 C-2.25773437 12.53707031 -2.26546875 11.57414062 -2.2734375 10.58203125 C-2.27085937 9.65777344 -2.26828125 8.73351562 -2.265625 7.78125 C-2.26224121 6.5137793 -2.26224121 6.5137793 -2.25878906 5.22070312 C-2 3 -2 3 0 0 Z " fill="#DFE0DA" transform="translate(396,249)"/>
<path d="M0 0 C4.29 0 8.58 0 13 0 C13 0.99 13 1.98 13 3 C10.36 3 7.72 3 5 3 C5 7.29 5 11.58 5 16 C7.31 16 9.62 16 12 16 C12 16.99 12 17.98 12 19 C9.69 19 7.38 19 5 19 C5 23.29 5 27.58 5 32 C7.64 32 10.28 32 13 32 C13 32.99 13 33.98 13 35 C8.71 35 4.42 35 0 35 C0 23.45 0 11.9 0 0 Z " fill="#111111" transform="translate(386,297)"/>
<path d="M0 0 C3.625 0.375 3.625 0.375 7 1 C7.02892857 4.95831809 7.04677427 8.91660917 7.0625 12.875 C7.07087891 14.00292969 7.07925781 15.13085938 7.08789062 16.29296875 C7.09111328 17.36933594 7.09433594 18.44570313 7.09765625 19.5546875 C7.10289307 20.54968262 7.10812988 21.54467773 7.11352539 22.56982422 C7 25 7 25 6 27 C3.125 27.125 3.125 27.125 0 27 C-2.56988681 24.43011319 -2.25706775 23.41089947 -2.265625 19.84375 C-2.26820313 18.82152344 -2.27078125 17.79929687 -2.2734375 16.74609375 C-2.26183594 15.13927734 -2.26183594 15.13927734 -2.25 13.5 C-2.25773438 12.42878906 -2.26546875 11.35757812 -2.2734375 10.25390625 C-2.27085937 9.23167969 -2.26828125 8.20945312 -2.265625 7.15625 C-2.26336914 6.21587891 -2.26111328 5.27550781 -2.25878906 4.30664062 C-2 2 -2 2 0 0 Z " fill="#EBECE7" transform="translate(255,301)"/>
<path d="M0 0 C3.625 0.375 3.625 0.375 7 1 C7.02892857 4.95831809 7.04677427 8.91660917 7.0625 12.875 C7.07087891 14.00292969 7.07925781 15.13085938 7.08789062 16.29296875 C7.09111328 17.36933594 7.09433594 18.44570312 7.09765625 19.5546875 C7.10289307 20.54968262 7.10812988 21.54467773 7.11352539 22.56982422 C7 25 7 25 6 27 C3.125 27.125 3.125 27.125 0 27 C-2.56988681 24.43011319 -2.25706775 23.41089947 -2.265625 19.84375 C-2.26820313 18.82152344 -2.27078125 17.79929688 -2.2734375 16.74609375 C-2.26183594 15.13927734 -2.26183594 15.13927734 -2.25 13.5 C-2.25773437 12.42878906 -2.26546875 11.35757813 -2.2734375 10.25390625 C-2.27085937 9.23167969 -2.26828125 8.20945313 -2.265625 7.15625 C-2.26336914 6.21587891 -2.26111328 5.27550781 -2.25878906 4.30664062 C-2 2 -2 2 0 0 Z " fill="#EBECE7" transform="translate(339,197)"/>
<path d="M0 0 C3.96 0 7.92 0 12 0 C12 0.99 12 1.98 12 3 C9.36 3 6.72 3 4 3 C4 7.29 4 11.58 4 16 C6.31 16 8.62 16 11 16 C11 16.99 11 17.98 11 19 C8.69 19 6.38 19 4 19 C4 23.29 4 27.58 4 32 C6.64 32 9.28 32 12 32 C12 32.99 12 33.98 12 35 C8.04 35 4.08 35 0 35 C0 23.45 0 11.9 0 0 Z " fill="#000000" transform="translate(327,297)"/>
<path d="M0 0 C3.96 0 7.92 0 12 0 C12 0.99 12 1.98 12 3 C9.36 3 6.72 3 4 3 C4 7.29 4 11.58 4 16 C6.31 16 8.62 16 11 16 C11 16.99 11 17.98 11 19 C8.69 19 6.38 19 4 19 C4 23.29 4 27.58 4 32 C6.64 32 9.28 32 12 32 C12 32.99 12 33.98 12 35 C8.04 35 4.08 35 0 35 C0 23.45 0 11.9 0 0 Z " fill="#000000" transform="translate(290,193)"/>
<path d="M0 0 C4.29 0 8.58 0 13 0 C13 0.99 13 1.98 13 3 C10.03 3 7.06 3 4 3 C4 7.29 4 11.58 4 16 C6.31 16 8.62 16 11 16 C11 16.99 11 17.98 11 19 C8.69 19 6.38 19 4 19 C4 24.28 4 29.56 4 35 C2.68 35 1.36 35 0 35 C0 23.45 0 11.9 0 0 Z " fill="#000000" transform="translate(413,245)"/>
<path d="M0 0 C5.28 0 10.56 0 16 0 C16 0.99 16 1.98 16 3 C14.02 3 12.04 3 10 3 C10 13.56 10 24.12 10 35 C8.68 35 7.36 35 6 35 C6 24.44 6 13.88 6 3 C4.02 3 2.04 3 0 3 C0 2.01 0 1.02 0 0 Z " fill="#000000" transform="translate(314,193)"/>
<path d="M0 0 C1.65 0 3.3 0 5 0 C5 11.55 5 23.1 5 35 C3.68 35 2.36 35 1 35 C0.67 26.75 0.34 18.5 0 10 C-0.66 10 -1.32 10 -2 10 C-1.34 6.7 -0.68 3.4 0 0 Z " fill="#1C1C1B" transform="translate(289,297)"/>
<path d="M0 0 C1.65 0 3.3 0 5 0 C5 11.55 5 23.1 5 35 C4.01 35 3.02 35 2 35 C1.67 27.08 1.34 19.16 1 11 C0.34 13.97 -0.32 16.94 -1 20 C-1.66 19.67 -2.32 19.34 -3 19 C-2.48446121 12.50149789 -1.53332291 6.33773468 0 0 Z " fill="#050505" transform="translate(316,297)"/>
<path d="M0 0 C1.98 0 3.96 0 6 0 C8 2 8 2 8.265625 4.09375 C8.26046875 4.8878125 8.2553125 5.681875 8.25 6.5 C8.25515625 7.2940625 8.2603125 8.088125 8.265625 8.90625 C8 11 8 11 6 13 C4.02 13 2.04 13 0 13 C0 8.71 0 4.42 0 0 Z " fill="#EAEBE5" transform="translate(325,264)"/>
<path d="M0 0 C0.33 0 0.66 0 1 0 C0.35343144 8.89031769 -1.87022567 17.37193748 -4 26 C-4.99 26 -5.98 26 -7 26 C-7.99 21.05 -8.98 16.1 -10 11 C-9.34 11 -8.68 11 -8 11 C-7.67 10.34 -7.34 9.68 -7 9 C-6.34 11.64 -5.68 14.28 -5 17 C-4.80664062 15.94039063 -4.61328125 14.88078125 -4.4140625 13.7890625 C-4.15144936 12.40096447 -3.88840614 11.01294776 -3.625 9.625 C-3.49867188 8.92632812 -3.37234375 8.22765625 -3.2421875 7.5078125 C-2.2265625 2.2265625 -2.2265625 2.2265625 0 0 Z " fill="#131413" transform="translate(288,306)"/>
<path d="M0 0 C6.875 0.875 6.875 0.875 8 2 C8.46554364 9.21592649 8.46554364 9.21592649 6.8125 12 C5 13 5 13 0 13 C0 8.71 0 4.42 0 0 Z " fill="#D9DAD4" transform="translate(274,196)"/>
<path d="M0 0 C6.875 0.875 6.875 0.875 8 2 C8.27314815 7.73611111 8.27314815 7.73611111 8 10 C7.34 10.66 6.68 11.32 6 12 C4.02 12 2.04 12 0 12 C0 8.04 0 4.08 0 0 Z " fill="#E7E8E2" transform="translate(325,248)"/>
<path d="M0 0 C1.65 0 3.3 0 5 0 C7 2 7 2 7.265625 4.09375 C7.26046875 4.8878125 7.2553125 5.681875 7.25 6.5 C7.25515625 7.2940625 7.2603125 8.088125 7.265625 8.90625 C7 11 7 11 5 13 C3.35 13 1.7 13 0 13 C0 8.71 0 4.42 0 0 Z " fill="#E1E2DC" transform="translate(348,300)"/>
<path d="M0 0 C0.33 0 0.66 0 1 0 C1.66 3.3 2.32 6.6 3 10 C3.66 7.69 4.32 5.38 5 3 C5.99 3.33 6.98 3.66 8 4 C7.01 8.95 6.02 13.9 5 19 C4.01 19 3.02 19 2 19 C-1.62870159 6.51480638 -1.62870159 6.51480638 0 0 Z " fill="#101010" transform="translate(307,313)"/>
<path d="M0 0 C1.99954746 -0.04254356 4.00041636 -0.04080783 6 0 C7.89885096 1.89885096 7.12367506 4.57247903 7.1328125 7.08984375 C7 9 7 9 6 11 C4.02 11 2.04 11 0 11 C0 7.37 0 3.74 0 0 Z " fill="#F0F1EB" transform="translate(364,249)"/>
<path d="M0 0 C0.66 0 1.32 0 2 0 C2.33776684 1.7491497 2.67003671 3.49936145 3 5.25 C3.185625 6.22453125 3.37125 7.1990625 3.5625 8.203125 C4 11 4 11 4 15 C2.02 15 0.04 15 -2 15 C-1.38487182 9.99109914 -0.7282448 4.99367864 0 0 Z " fill="#CBCBC6" transform="translate(279,253)"/>
<path d="M0 0 C0.66 0 1.32 0 2 0 C2.33 2.64 2.66 5.28 3 8 C3.66 8 4.32 8 5 8 C5.33 6.68 5.66 5.36 6 4 C6.33 4 6.66 4 7 4 C6.85904936 5.6254308 6.71207913 7.25034051 6.5625 8.875 C6.48128906 9.77992188 6.40007812 10.68484375 6.31640625 11.6171875 C6 14 6 14 5 16 C4.34 16 3.68 16 3 16 C2.49193553 14.27318563 1.99389533 12.54342021 1.5 10.8125 C1.08234375 9.36810547 1.08234375 9.36810547 0.65625 7.89453125 C0.03322392 5.14654124 -0.12302812 2.80401584 0 0 Z " fill="#080808" transform="translate(300,264)"/>
<path d="M0 0 C0.66 0.33 1.32 0.66 2 1 C3.14242743 5.68395246 3.08252495 10.21355271 3 15 C1.35 15 -0.3 15 -2 15 C-1.85816304 13.24967156 -1.71136571 11.49974466 -1.5625 9.75 C-1.48128906 8.77546875 -1.40007812 7.8009375 -1.31640625 6.796875 C-1.04925416 4.43538247 -0.64628032 2.28098935 0 0 Z " fill="#D1D2CD" transform="translate(256,201)"/>
<path d="M0 0 C0.33 0 0.66 0 1 0 C0.41509121 6.14154225 -0.54066252 12.00679849 -2 18 C-2.66 18 -3.32 18 -4 18 C-2.98473282 2.98473282 -2.98473282 2.98473282 0 0 Z " fill="#080808" transform="translate(288,306)"/>
<path d="M0 0 C0.33 0 0.66 0 1 0 C1.33 3.63 1.66 7.26 2 11 C1.34 11 0.68 11 0 11 C-0.19491452 9.54263913 -0.38069358 8.08405407 -0.5625 6.625 C-0.66691406 5.81289063 -0.77132813 5.00078125 -0.87890625 4.1640625 C-1 2 -1 2 0 0 Z " fill="#0A0A09" transform="translate(278,306)"/>
<path d="M0 0 C0.33 0 0.66 0 1 0 C0.67 2.97 0.34 5.94 0 9 C-0.99 9 -1.98 9 -3 9 C-2.25 2.25 -2.25 2.25 0 0 Z " fill="#111110" transform="translate(288,306)"/>
</svg>
